<?xml version="1.0" encoding="UTF-8"?>
<!DOCTYPE svg PUBLIC "-//W3C//DTD SVG 1.1//EN" "http://www.w3.org/Graphics/SVG/1.1/DTD/svg11.dtd">
<!-- Creator: CorelDRAW X7 -->
<svg xmlns="http://www.w3.org/2000/svg" xml:space="preserve" width="0.296752in" height="0.309299in" version="1.1" style="shape-rendering:geometricPrecision; text-rendering:geometricPrecision; image-rendering:optimizeQuality; fill-rule:evenodd; clip-rule:evenodd"
viewBox="0 0 297 309"
 xmlns:xlink="http://www.w3.org/1999/xlink">
 <defs>
  <style type="text/css">
   <![CDATA[
    .fil5 {fill:#FFF1B1}
    .fil1 {fill:#E7384E}
    .fil0 {fill:#E7314D}
    .fil2 {fill:#843429}
    .fil4 {fill:#006E6C}
    .fil3 {fill:#005F5D}
   ]]>
  </style>
 </defs>
 <g id="Layer_x0020_1">
  <metadata id="CorelCorpID_0Corel-Layer"/>
  <g id="_564403888">
   <path class="fil0" d="M264 1c-7,0 -13,2 -20,4l-1 0c-2,1 -5,2 -8,2 -1,1 -2,1 -3,1l-2 1c-3,0 -5,1 -8,1 -40,9 -80,23 -110,33 -16,6 -32,12 -47,18 -14,5 -28,10 -43,15 0,2 0,4 0,6l0 0 0 0 0 1 0 0c-1,4 -1,8 -1,12 0,4 0,8 1,12l0 0c1,6 2,12 4,18 1,5 3,11 6,17l0 -1c4,9 8,18 13,27 5,8 11,16 17,23l0 0c7,9 15,18 23,26 4,4 7,8 11,11 5,4 10,8 15,12l0 -1c7,6 15,11 23,15 4,3 8,5 12,7 4,2 8,3 13,5l-1 0c8,3 16,6 25,8 4,1 8,2 12,2 4,1 8,2 12,2 4,1 7,1 10,1 2,0 3,0 5,0 2,0 3,0 5,1 2,0 4,0 6,0 12,-23 22,-47 30,-72 13,-35 22,-71 28,-106 1,-9 2,-18 3,-27 1,-8 2,-15 2,-22 1,-7 1,-13 1,-18 -1,-5 -1,-12 -3,-19 -1,-2 -1,-3 -2,-4 0,-1 -1,-3 -2,-4 -2,-2 -4,-4 -6,-5 -4,-2 -8,-3 -12,-3 -2,0 -5,0 -8,1z"/>
   <path class="fil1" d="M272 0c-2,0 -5,0 -8,0 -7,1 -14,3 -20,5l-1 0 0 0 0 0c-3,1 -5,2 -8,2 -1,1 -2,1 -3,1l-2 0c-3,1 -5,2 -8,2 -40,9 -80,23 -110,33l-1 1 -4 1c0,0 0,1 0,1 0,0 0,1 -1,2 1,0 1,1 1,2 0,0 0,0 0,1 0,0 1,0 1,1 0,0 1,0 1,1 1,0 2,0 3,1 2,0 5,0 7,0l0 1c2,0 3,0 4,0 1,0 2,0 3,0 1,0 2,1 3,1 1,0 1,1 1,1 1,0 1,0 1,1 0,0 1,0 1,0 0,1 1,2 1,2 0,1 1,1 1,1 0,1 0,1 0,1 0,1 0,2 0,3 0,0 0,1 0,2 0,2 0,4 -1,6 -1,2 -2,4 -3,7l-1 2c-1,1 -2,3 -3,4 -1,2 -2,4 -3,6l-1 3c-2,3 -4,7 -6,11 -2,6 -4,10 -5,15 0,2 -1,4 -1,5 0,2 -1,4 -1,6 0,1 1,3 1,4 0,1 0,3 0,4 1,1 1,2 2,4 0,1 1,2 2,3 0,2 1,3 2,4 1,1 2,2 3,3 1,1 2,2 3,3 1,1 2,1 3,2 1,0 1,1 2,1 1,0 2,0 3,1 1,0 2,0 2,0 1,0 2,0 3,0 1,0 3,0 4,0 1,0 3,0 4,-1 4,-1 7,-2 11,-3l0 -1c4,-1 7,-2 11,-4 3,0 4,0 6,-1 1,0 3,0 4,0 1,0 2,0 3,0 2,0 4,1 5,1l2 0c2,0 4,1 6,1 1,0 2,0 3,0 1,-1 2,-1 3,-1 1,0 2,-1 3,-1 1,-1 2,-1 3,-2 2,-1 3,-2 5,-3 1,-1 3,-2 4,-3l1 -1c2,-2 3,-3 5,-4 2,-2 4,-2 5,-3 1,-1 2,-1 3,-1 1,-1 2,-1 3,-1 1,-1 3,-1 4,-2 1,0 2,0 3,0 0,0 1,0 1,0 1,0 2,1 4,1 0,1 1,1 2,2 0,0 1,1 1,2 1,1 2,3 3,5 1,3 1,5 2,7 0,2 0,5 -1,7 0,4 -1,9 -2,13l0 2c-1,5 -2,10 -3,15 0,2 1,3 1,4 0,1 0,2 0,3 1,3 2,5 3,7 0,0 1,1 1,2 0,0 1,0 1,1 1,0 1,1 2,1 1,1 1,1 2,1 1,0 2,0 2,0 1,0 2,0 4,0 1,0 3,-1 5,-2 1,-1 1,-1 2,-2 11,-32 19,-65 25,-98 1,-9 2,-18 3,-27 1,-8 2,-16 2,-22 1,-7 1,-13 1,-18 0,-5 -1,-12 -3,-19 -1,-2 -1,-3 -2,-4 0,-1 -1,-3 -2,-4 -2,-2 -4,-4 -6,-5 -4,-2 -8,-3 -12,-3z"/>
   <path class="fil2" d="M243 123c-1,2 -3,4 -5,6 -1,2 -2,3 -3,4l0 1c-1,2 -3,4 -4,7 -1,1 -2,4 -2,6 -1,1 -1,2 -1,2 0,1 0,2 1,2 0,1 0,2 1,2 0,0 1,0 2,0l0 0c1,0 2,0 3,0 1,-1 2,-1 2,-1 1,-1 2,-1 2,-1 2,-2 3,-4 5,-7 1,-3 2,-6 3,-9 0,-3 1,-7 1,-9 1,-1 1,-3 1,-4 0,-1 0,-3 1,-4 0,0 0,-1 -1,-1 -2,2 -4,4 -6,6z"/>
   <path class="fil2" d="M254 43c-3,2 -6,4 -9,6l0 0c-1,1 -1,1 -2,1 -2,2 -3,4 -5,5 -2,2 -3,3 -4,5 0,1 -1,2 -1,3 -1,1 -1,2 -1,2 0,1 0,2 0,3 0,1 1,1 2,2 1,0 2,1 3,1l0 0c1,0 2,0 3,-1 1,0 2,-1 3,-2 1,-1 2,-2 3,-3 1,-2 3,-4 4,-6 1,-3 3,-5 4,-8 1,-2 2,-4 3,-6 1,-2 1,-3 2,-5 -2,1 -3,2 -5,3z"/>
   <path class="fil2" d="M157 59c-1,0 -2,0 -3,0l-2 1c-3,0 -5,1 -8,1 -3,1 -6,2 -9,3 -3,1 -5,2 -7,3 -1,1 -2,1 -3,2 0,1 -1,2 -1,3 -1,1 -1,1 0,2 0,1 0,2 1,3 1,1 2,2 3,2 0,0 1,0 2,0 0,0 1,0 1,0 1,0 2,0 4,-1 1,0 2,-1 4,-2 0,0 0,0 0,0 3,-2 5,-4 7,-5 1,-1 2,-2 3,-3 3,-3 6,-6 9,-9 0,0 -1,0 -1,0l0 0z"/>
   <path class="fil2" d="M93 119c-1,0 -1,0 -2,0 -1,0 -2,0 -3,0 -2,1 -5,2 -8,2 -3,1 -6,2 -8,3 -3,2 -6,3 -8,4 -1,1 -2,2 -3,2 -1,1 -2,2 -3,3 0,1 -1,1 -1,2 0,1 0,2 1,3 0,1 0,1 0,1 0,1 1,1 1,2 1,1 2,1 3,1 0,1 1,1 2,1 1,0 2,-1 4,-1l0 0c1,-1 3,-2 4,-3 3,-2 5,-4 7,-6 3,-2 5,-4 7,-6 1,-1 3,-3 4,-4 1,-2 2,-3 3,-4l0 0 0 0z"/>
   <path class="fil2" d="M185 107c-2,1 -5,3 -7,4 -2,1 -3,1 -4,2 -3,2 -6,4 -8,6 -1,1 -2,2 -3,3 -1,1 -2,2 -3,3 -1,2 -2,4 -2,5 0,3 2,4 4,5 1,1 1,1 2,1l1 0c1,0 2,-1 3,-1 1,-1 2,-2 3,-3 1,0 2,-1 3,-3 2,-1 3,-3 5,-6 1,-1 3,-4 4,-6 1,-2 2,-4 3,-6 1,-1 2,-3 2,-4 0,-1 0,-1 0,-1 -1,0 -2,1 -3,1z"/>
   <path class="fil2" d="M138 180c-3,2 -7,4 -10,6 -1,1 -2,1 -2,2 -3,2 -5,4 -7,6 -1,2 -3,4 -5,6 0,2 -1,4 0,6 0,1 1,1 2,2 1,1 2,1 3,1 0,0 1,0 1,0 2,0 4,-1 6,-2 2,-2 4,-5 5,-7 2,-3 3,-7 5,-11 0,-2 1,-4 2,-5l0 -2 1 -2c0,0 0,0 0,0l0 -1c-1,0 -1,1 -1,1z"/>
   <path class="fil2" d="M193 203c-3,3 -5,5 -8,7 0,0 0,1 -1,1 -2,2 -3,5 -5,7 -2,2 -4,5 -5,7 -1,3 -3,5 -3,6 -1,1 -1,2 -1,3 0,1 0,2 0,2 0,1 0,2 0,2 1,1 1,1 2,1 0,0 1,0 2,0 0,0 0,0 1,0 1,0 2,0 3,-1 1,0 2,-1 3,-2 1,-1 2,-2 3,-3 2,-3 3,-6 5,-10 1,-3 2,-6 3,-10 1,-3 2,-6 2,-9 0,0 0,-1 0,-1 0,0 0,0 0,-1 0,1 -1,1 -1,1z"/>
   <path class="fil3" d="M4 83l-1 0 -1 0 0 1c-1,0 -2,0 -2,1 0,11 0,22 1,32 1,11 3,21 6,32 6,20 15,39 26,58 12,18 26,34 42,48 16,15 34,27 53,36 10,5 21,9 31,12 13,4 27,6 41,6 1,0 2,0 3,0 2,0 3,0 5,0 2,0 4,0 6,0 2,-1 3,-1 4,-1 6,-10 12,-21 17,-32l0 0c-4,1 -7,1 -10,1 -3,-1 -6,-1 -9,-1 -11,-1 -22,-3 -32,-6 -12,-3 -24,-7 -36,-13 -11,-5 -22,-11 -32,-19 -11,-7 -20,-15 -29,-24 -4,-4 -8,-8 -11,-12 -3,-4 -7,-8 -10,-12 -6,-9 -13,-18 -18,-28 -3,-5 -6,-10 -8,-16 -3,-5 -5,-10 -7,-16 -2,-5 -4,-10 -6,-16 -1,-5 -2,-10 -3,-16 0,-5 -1,-10 0,-15 0,-3 0,-5 1,-8l0 0c-7,3 -14,5 -21,8z"/>
   <path class="fil4" d="M0 111c1,2 1,4 1,6 1,6 2,12 3,18 8,-6 16,-11 25,-16 -1,-2 -1,-3 -2,-5 -1,-5 -2,-10 -2,-14 -9,3 -17,7 -25,11z"/>
   <path class="fil4" d="M36 161c-7,3 -14,7 -21,12 3,6 6,13 10,19 9,-7 18,-15 28,-22 -2,-3 -4,-6 -5,-8 -1,-2 -2,-4 -3,-6 -3,1 -6,3 -9,5z"/>
   <path class="fil4" d="M66 211c-7,4 -14,9 -20,13 4,6 10,12 15,18 10,-8 20,-16 30,-24 -1,-2 -3,-3 -4,-4 -4,-4 -7,-7 -10,-11 -4,3 -7,5 -11,8z"/>
   <path class="fil4" d="M117 242c-8,10 -16,19 -24,28 7,5 14,10 21,14 8,-11 16,-22 23,-32 -6,-4 -12,-7 -18,-12l-2 2z"/>
   <path class="fil4" d="M154 302c2,0 3,0 5,1 7,2 15,4 22,5 2,-4 4,-7 6,-11 4,-8 8,-15 11,-23 -5,-1 -10,-2 -14,-4 -3,0 -5,-1 -7,-2 -8,12 -15,22 -23,34z"/>
   <path class="fil5" d="M32 149l0 0 0 0zm-14 -71c0,4 0,8 0,12 0,5 1,10 1,15 1,8 3,15 5,22 2,8 5,15 8,22l0 0c4,9 8,18 13,26 5,8 11,16 17,24l0 0c14,17 29,32 47,45l0 0c7,5 14,10 21,14 9,5 18,9 28,13l0 0c7,3 15,6 23,8 4,1 8,2 12,2 4,1 8,2 12,2l0 0 0 0 0 0 0 0 0 0 0 0c6,1 12,1 17,1 3,1 6,1 9,1 1,-3 3,-6 4,-9l0 0 0 0c-3,1 -5,1 -7,1 -1,0 -2,0 -3,0 -3,-1 -6,-1 -9,-1 -11,-1 -22,-3 -32,-6 -12,-3 -24,-7 -36,-13 -11,-5 -22,-11 -32,-19 -11,-7 -20,-15 -29,-24 -4,-4 -8,-8 -11,-12 -3,-4 -6,-8 -9,-12 -7,-9 -14,-19 -19,-28 -3,-5 -6,-11 -8,-16 -3,-5 -5,-11 -7,-16 -3,-5 -4,-11 -6,-16 -1,-6 -2,-11 -3,-16 0,-5 0,-11 0,-15 0,-3 0,-5 1,-8l0 0c-3,1 -5,2 -7,3z"/>
   <polygon class="fil5" points="32,149 32,149 "/>
  </g>
 </g>
</svg>
